<svg aria-hidden="true" style="position: absolute; width: 0; height: 0; overflow: hidden;" version="1.1" xmlns="http://www.w3.org/2000/svg" xmlns:xlink="http://www.w3.org/1999/xlink">
<defs>

<symbol id="Logo" viewBox="0 0 30 32">
<path fill="#fff" style="fill: var(--color1, #fff)" d="M0.667 17.079l3.344-2.795c0.775-0.648 1.914-0.527 2.544 0.27s0.513 1.968-0.262 2.615l-1.618 1.353 11.749 10.178c0.775 0.648 0.892 1.819 0.262 2.615-0.357 0.452-0.879 0.686-1.404 0.686-0.401 0-0.805-0.136-1.14-0.417l-13.475-11.62c-0.422-0.353-0.667-0.883-0.667-1.442s0.245-1.089 0.667-1.442z"></path>
<path fill="#fff" style="fill: var(--color1, #fff)" d="M15.516 0c0.96 0.008 1.732 0.814 1.724 1.802l-0.15 28.425c-0.008 0.987-0.792 1.781-1.752 1.773-0.243-0.002-0.474-0.055-0.684-0.149-0.617-0.278-1.047-0.915-1.041-1.652l0.15-28.425c0.008-0.987 0.792-1.781 1.752-1.773z"></path>
<path fill="#7b4ae2" style="fill: var(--color2, #7b4ae2)" d="M23.148 19.553l1.235-1.032-4.399-3.677c-0.775-0.648-0.892-1.819-0.262-2.615s1.769-0.918 2.544-0.27l6.124 5.119c0.422 0.353 0.668 0.883 0.668 1.442s-0.245 1.089-0.668 1.442l-2.96 2.475c-0.335 0.28-0.739 0.417-1.14 0.417-0.526 0-1.047-0.234-1.404-0.686-0.63-0.797-0.512-1.967 0.262-2.615z"></path>
</symbol>

<symbol id="linkedin" viewBox="0 0 32 32">
<path fill="#fff" style="fill: var(--color1, #fff)" opacity="0.5" d="M16 0c8.837 0 16 7.164 16 16s-7.163 16-16 16c-8.837 0-16-7.164-16-16s7.163-16 16-16z"></path>
<path fill="#090e16" style="fill: var(--color2, #090e16)" d="M9.016 21.984h2.996v-9.986h-2.996v9.986zM20.688 11.652c-1.454 0-2.755 0.531-3.678 1.703v-1.39h-3.007v10.019h3.007v-5.418c0-1.145 1.049-2.262 2.363-2.262s1.638 1.117 1.638 2.234v5.445h2.996v-5.668c-0-3.937-1.864-4.663-3.319-4.663zM10.5 11c0.828 0 1.5-0.672 1.5-1.5s-0.672-1.5-1.5-1.5c-0.828 0-1.5 0.672-1.5 1.5s0.672 1.5 1.5 1.5z"></path>
</symbol>

<symbol id="github" viewBox="0 0 33 32">
<path fill="#fff" style="fill: var(--color1, #fff)" opacity="0.5" d="M16.466 0.331c-8.968 0-16.232 7.264-16.232 16.232 0 7.183 4.646 13.249 11.098 15.4 0.812 0.142 1.116-0.345 1.116-0.771 0-0.385-0.020-1.664-0.020-3.023-4.078 0.751-5.133-0.994-5.458-1.907-0.183-0.467-0.974-1.907-1.664-2.293-0.568-0.304-1.38-1.055-0.020-1.075 1.278-0.020 2.191 1.177 2.496 1.664 1.461 2.455 3.794 1.765 4.727 1.339 0.142-1.055 0.568-1.765 1.035-2.171-3.612-0.406-7.385-1.806-7.385-8.014 0-1.765 0.629-3.226 1.664-4.362-0.162-0.406-0.73-2.070 0.162-4.301 0 0 1.359-0.426 4.464 1.664 1.298-0.365 2.678-0.548 4.058-0.548s2.759 0.183 4.058 0.548c3.104-2.11 4.464-1.664 4.464-1.664 0.893 2.232 0.325 3.896 0.162 4.301 1.035 1.136 1.664 2.577 1.664 4.362 0 6.229-3.794 7.609-7.406 8.014 0.588 0.507 1.096 1.481 1.096 3.003 0 2.171-0.020 3.916-0.020 4.464 0 0.426 0.304 0.933 1.116 0.771 6.412-2.151 11.058-8.238 11.058-15.4 0-8.968-7.264-16.232-16.232-16.232z"></path>
</symbol>

<symbol id="telegram" viewBox="0 0 32 32">
<path fill="#090e16" style="fill: var(--color2, #090e16)"  opacity="0.5" d="M16 0c8.837 0 16 7.164 16 16s-7.163 16-16 16c-8.837 0-16-7.164-16-16s7.163-16 16-16z"></path>
<path fill="#fff" style="fill: var(--color1, #fff)" opacity="0.5" d="M16 0c-8.838 0-16 7.162-16 16s7.162 16 16 16 16-7.163 16-16-7.163-16-16-16zM23.863 10.969l-2.625 12.369c-0.181 0.881-0.712 1.087-1.45 0.681l-4-2.956-1.919 1.869c-0.225 0.219-0.4 0.4-0.8 0.4-0.519 0-0.431-0.194-0.606-0.688l-1.363-4.475-3.956-1.231c-0.856-0.262-0.862-0.85 0.194-1.269l15.412-5.95c0.7-0.319 1.381 0.169 1.113 1.25z"></path>
</symbol>



<symbol id="projectsIcon" viewBox="0 0 32 32">
<path fill="none" stroke="#7b4ae2" style="stroke: var(--color1, #7b4ae2)" stroke-linejoin="round" stroke-linecap="round" stroke-miterlimit="4" stroke-width="0.5" d="M5 7h22v15c0 0.265-0.105 0.52-0.293 0.707s-0.442 0.293-0.707 0.293h-5c-0.265 0-0.52-0.105-0.707-0.293s-0.293-0.442-0.293-0.707v-3h-8v7c0 0.265-0.105 0.52-0.293 0.707s-0.442 0.293-0.707 0.293h-5c-0.265 0-0.52-0.105-0.707-0.293s-0.293-0.442-0.293-0.707v-19z"></path>
<path fill="none" stroke="#7b4ae2" style="stroke: var(--color1, #7b4ae2)" stroke-linejoin="round" stroke-linecap="round" stroke-miterlimit="4" stroke-width="0.5" d="M12 15h-7"></path>
<path fill="none" stroke="#7b4ae2" style="stroke: var(--color1, #7b4ae2)" stroke-linejoin="round" stroke-linecap="round" stroke-miterlimit="4" stroke-width="0.5" d="M12 7v12"></path>
<path fill="none" stroke="#7b4ae2" style="stroke: var(--color1, #7b4ae2)" stroke-linejoin="round" stroke-linecap="round" stroke-miterlimit="4" stroke-width="0.5" d="M20 15h7"></path>
<path fill="none" stroke="#7b4ae2" style="stroke: var(--color1, #7b4ae2)" stroke-linejoin="round" stroke-linecap="round" stroke-miterlimit="4" stroke-width="0.5" d="M20 7v12"></path>
<path fill="#7b4ae2" style="fill: var(--color1, #7b4ae2)" opacity="0.2" d="M26 17c0 5.523-4.477 10-10 10s-10-4.477-10-10c0-5.523 4.477-10 10-10s10 4.477 10 10z"></path>
</symbol>

<symbol id="codeIcon" viewBox="0 0 38 32">
<path fill="none" stroke="#7b4ae2" style="stroke: var(--color1, #7b4ae2)" stroke-linejoin="round" stroke-linecap="round" stroke-miterlimit="4" stroke-width="0.5" d="M8 11l-6 5 6 5"></path>
<path fill="none" stroke="#7b4ae2" style="stroke: var(--color1, #7b4ae2)" stroke-linejoin="round" stroke-linecap="round" stroke-miterlimit="4" stroke-width="0.5" d="M24 11l6 5-6 5"></path>
<path fill="none" stroke="#7b4ae2" style="stroke: var(--color1, #7b4ae2)" stroke-linejoin="round" stroke-linecap="round" stroke-miterlimit="4" stroke-width="0.5" d="M20 5l-8 22"></path>
<path fill="#7b4ae2" style="fill: var(--color1, #7b4ae2)" opacity="0.2" d="M36 17c0 5.523-4.477 10-10 10s-10-4.477-10-10c0-5.523 4.477-10 10-10s10 4.477 10 10z"></path>
</symbol>

<symbol id="nodejs" viewBox="0 0 32 32">
<path fill="#539e43" style="fill: var(--color1, #539e43)" d="M15.819 25.756c-0.108 0-0.209-0.029-0.303-0.079l-0.961-0.571c-0.145-0.079-0.072-0.108-0.029-0.123 0.195-0.065 0.231-0.079 0.433-0.195 0.022-0.015 0.051-0.007 0.072 0.007l0.737 0.441c0.029 0.014 0.065 0.014 0.087 0l2.882-1.669c0.029-0.014 0.043-0.043 0.043-0.079v-3.33c0-0.036-0.015-0.065-0.043-0.079l-2.882-1.661c-0.029-0.015-0.065-0.015-0.087 0l-2.882 1.661c-0.029 0.014-0.043 0.051-0.043 0.079v3.33c0 0.029 0.014 0.065 0.043 0.079l0.787 0.455c0.426 0.217 0.693-0.036 0.693-0.289v-3.287c0-0.043 0.036-0.087 0.087-0.087h0.368c0.043 0 0.087 0.036 0.087 0.087v3.287c0 0.571-0.311 0.903-0.852 0.903-0.166 0-0.296 0-0.665-0.181l-0.758-0.433c-0.188-0.108-0.303-0.311-0.303-0.527v-3.33c0-0.217 0.116-0.419 0.303-0.527l2.882-1.669c0.181-0.101 0.426-0.101 0.607 0l2.882 1.669c0.188 0.108 0.303 0.311 0.303 0.527v3.33c0 0.217-0.116 0.419-0.303 0.527l-2.882 1.669c-0.094 0.043-0.202 0.065-0.303 0.065zM16.708 23.466c-1.264 0-1.524-0.578-1.524-1.069 0-0.043 0.036-0.087 0.087-0.087h0.376c0.043 0 0.079 0.029 0.079 0.072 0.058 0.383 0.224 0.571 0.99 0.571 0.607 0 0.867-0.137 0.867-0.462 0-0.188-0.072-0.325-1.019-0.419-0.787-0.079-1.279-0.253-1.279-0.881 0-0.585 0.491-0.932 1.315-0.932 0.925 0 1.38 0.318 1.438 1.011 0 0.022-0.007 0.043-0.022 0.065-0.015 0.014-0.036 0.029-0.058 0.029h-0.376c-0.036 0-0.072-0.029-0.079-0.065-0.087-0.397-0.311-0.527-0.903-0.527-0.665 0-0.744 0.231-0.744 0.404 0 0.209 0.094 0.274 0.99 0.39 0.889 0.116 1.308 0.282 1.308 0.903-0.007 0.636-0.527 0.997-1.445 0.997z"></path>
<path fill="#333" style="fill: var(--color2, #333)" d="M6.877 12.732c0-0.13-0.072-0.253-0.188-0.318l-3.063-1.762c-0.051-0.029-0.108-0.043-0.166-0.051h-0.029c-0.058 0-0.116 0.022-0.166 0.051l-3.063 1.762c-0.116 0.065-0.188 0.188-0.188 0.318l0.007 4.739c0 0.065 0.036 0.13 0.094 0.159 0.058 0.036 0.13 0.036 0.181 0l1.82-1.040c0.116-0.065 0.188-0.188 0.188-0.318v-2.218c0-0.13 0.072-0.253 0.188-0.318l0.773-0.448c0.058-0.036 0.123-0.051 0.188-0.051s0.13 0.014 0.181 0.051l0.773 0.448c0.116 0.065 0.188 0.188 0.188 0.318v2.218c0 0.13 0.072 0.253 0.188 0.318l1.82 1.040c0.058 0.036 0.13 0.036 0.188 0 0.058-0.029 0.094-0.094 0.094-0.159l-0.007-4.739zM21.598 6.209c-0.058-0.029-0.13-0.029-0.181 0-0.058 0.036-0.094 0.094-0.094 0.159v4.695c0 0.043-0.022 0.087-0.065 0.116-0.043 0.022-0.087 0.022-0.13 0l-0.766-0.441c-0.053-0.031-0.116-0.049-0.184-0.049s-0.131 0.018-0.186 0.050l0.002-0.001-3.063 1.77c-0.116 0.065-0.188 0.188-0.188 0.318v3.532c0 0.13 0.072 0.253 0.188 0.318l3.063 1.77c0.053 0.031 0.116 0.049 0.184 0.049s0.131-0.018 0.186-0.050l-0.002 0.001 3.063-1.77c0.116-0.065 0.188-0.188 0.188-0.318v-8.805c0-0.137-0.072-0.26-0.188-0.325l-1.828-1.018zM21.317 15.195c0 0.036-0.014 0.065-0.043 0.079l-1.047 0.607c-0.014 0.007-0.030 0.011-0.047 0.011s-0.033-0.004-0.048-0.011l0.001 0-1.047-0.607c-0.029-0.014-0.043-0.051-0.043-0.079v-1.214c0-0.036 0.014-0.065 0.043-0.079l1.047-0.607c0.014-0.007 0.030-0.011 0.047-0.011s0.033 0.004 0.048 0.011l-0.001-0 1.047 0.607c0.029 0.014 0.043 0.051 0.043 0.079v1.214zM31.791 13.953c0.116-0.065 0.181-0.188 0.181-0.318v-0.86c0-0.13-0.072-0.253-0.181-0.318l-3.041-1.762c-0.053-0.031-0.116-0.049-0.184-0.049s-0.131 0.018-0.186 0.050l0.002-0.001-3.063 1.77c-0.116 0.065-0.188 0.188-0.188 0.318v3.532c0 0.13 0.072 0.253 0.188 0.318l3.041 1.734c0.116 0.065 0.253 0.065 0.361 0l1.842-1.026c0.058-0.029 0.094-0.094 0.094-0.159s-0.036-0.13-0.094-0.159l-3.077-1.77c-0.058-0.036-0.094-0.094-0.094-0.159v-1.105c0-0.065 0.036-0.13 0.094-0.159l0.961-0.549c0.027-0.017 0.059-0.027 0.094-0.027s0.067 0.010 0.095 0.027l-0.001-0 0.961 0.549c0.058 0.036 0.094 0.094 0.094 0.159v0.867c0 0.065 0.036 0.13 0.094 0.159 0.058 0.036 0.13 0.036 0.188 0l1.82-1.062z"></path>
<path fill="#539e43" style="fill: var(--color1, #539e43)" d="M28.518 13.787c0.010-0.007 0.023-0.011 0.036-0.011s0.026 0.004 0.036 0.011l-0-0 0.585 0.339c0.022 0.014 0.036 0.036 0.036 0.065v0.679c0 0.029-0.014 0.051-0.036 0.065l-0.585 0.339c-0.010 0.007-0.023 0.011-0.036 0.011s-0.026-0.004-0.036-0.011l0 0-0.585-0.339c-0.022-0.014-0.036-0.036-0.036-0.065v-0.679c0-0.029 0.014-0.051 0.036-0.065l0.585-0.339z"></path>
<path fill="#000" style="fill: var(--color3, #000)" d="M11.998 10.709c-0.053-0.031-0.116-0.049-0.184-0.049s-0.131 0.018-0.186 0.050l0.002-0.001-3.041 1.755c-0.116 0.065-0.181 0.188-0.181 0.318v3.518c0 0.13 0.072 0.253 0.181 0.318l3.041 1.755c0.053 0.031 0.116 0.049 0.184 0.049s0.131-0.018 0.186-0.050l-0.002 0.001 3.041-1.755c0.116-0.065 0.181-0.188 0.181-0.318v-3.518c0-0.13-0.072-0.253-0.181-0.318l-3.041-1.755z"></path>
<path fill="#000" style="fill: var(--color3, #000)" d="M15.046 12.465l-3.056-1.755c-0.027-0.014-0.058-0.026-0.090-0.035l-0.004-0.001-3.424 5.865c0.028 0.034 0.062 0.063 0.099 0.086l0.002 0.001 3.056 1.755c0.087 0.051 0.188 0.065 0.282 0.036l3.215-5.88c-0.022-0.029-0.051-0.051-0.079-0.072z"></path>
<path fill="#000" style="fill: var(--color3, #000)" d="M11.529 10.066l-0.043 0.022h0.058l-0.014-0.022z"></path>
<path fill="#000" style="fill: var(--color3, #000)" d="M15.054 16.618c0.087-0.051 0.152-0.137 0.181-0.231l-3.352-5.721c-0.087-0.014-0.181-0.007-0.26 0.043l-3.034 1.748 3.272 5.967c0.051-0.009 0.098-0.024 0.14-0.045l-0.003 0.001 3.056-1.762z"></path>
<path fill="#000" style="fill: var(--color3, #000)" d="M15.335 16.56l-0.022-0.036v0.051l0.022-0.014z"></path>
<path fill="#000" style="fill: var(--color3, #000)" d="M15.054 16.618l-3.048 1.755c-0.040 0.021-0.086 0.036-0.135 0.043l-0.002 0 0.058 0.108 3.381-1.957v-0.043l-0.087-0.145c-0.014 0.101-0.079 0.188-0.166 0.238z"></path>
<path fill="#000" style="fill: var(--color3, #000)" d="M15.054 16.618l-3.048 1.755c-0.040 0.021-0.086 0.036-0.135 0.043l-0.002 0 0.058 0.108 3.381-1.957v-0.043l-0.087-0.145c-0.014 0.101-0.079 0.188-0.166 0.238z"></path>
</symbol>


<symbol id="css" viewBox="0 0 32 32">
<path fill="#1172b8" style="fill: var(--color5, #1172b8)" d="M6 28l-2-25h24l-2 25-10 3-10-3z"></path>
<path fill="#3ad" style="fill: var(--color6, #3ad)" d="M26 5h-10v24.5l8-2.5 2-22z"></path>
<path fill="#fff" style="fill: var(--color7, #fff)" d="M19.5 17.5h-10l-0.5-3.5 8-2.5h-8l-0.5-3h15.5l-0.5 3.5-6.5 2.5h6l-1 9.5-6 2-6-2-0.5-5h3l0.5 2.5 3 1 3-1 0.5-4z"></path>
</symbol>


<symbol id="git" viewBox="0 0 32 32">
<path d="M31.397 14.575l-13.972-13.971c-0.804-0.805-2.109-0.805-2.915 0l-3.246 3.246 2.443 2.443c0.392-0.187 0.83-0.293 1.293-0.293 1.657 0 3 1.343 3 3 0 0.463-0.105 0.902-0.293 1.293l3.999 3.999c0.392-0.187 0.83-0.293 1.293-0.293 1.657 0 3 1.343 3 3s-1.343 3-3 3-3-1.343-3-3c0-0.463 0.105-0.902 0.293-1.293l-3.999-3.999c-0.095 0.046-0.193 0.086-0.293 0.121v8.343c1.165 0.412 2 1.522 2 2.829 0 1.657-1.343 3-3 3s-3-1.343-3-3c0-1.306 0.835-2.417 2-2.829v-8.343c-1.165-0.412-2-1.522-2-2.829 0-0.463 0.105-0.902 0.293-1.293l-2.443-2.443-9.247 9.246c-0.805 0.806-0.805 2.11 0 2.915l13.973 13.971c0.804 0.805 2.109 0.805 2.915 0l13.906-13.906c0.805-0.805 0.805-2.111-0-2.915z"></path>
</symbol>

<symbol id="react" viewBox="0 0 32 32">
<path fill="#00d8ff" style="fill: var(--color4, #00d8ff)" d="M18.239 15.977c0 1.237-1.002 2.239-2.239 2.239s-2.239-1.002-2.239-2.239c0-1.237 1.002-2.239 2.239-2.239s2.239 1.002 2.239 2.239z"></path>
<path fill="#00d8ff" style="fill: var(--color4, #00d8ff)" d="M16.165 11.258c3.817 0.026 7.983 0.305 10.841 2.854 0.084 0.075 0.165 0.153 0.244 0.233 0.674 0.688 1.027 1.797 0.483 2.711-1.117 1.875-3.615 2.694-6.034 3.197-3.617 0.753-7.399 0.759-11.014 0.096-2.080-0.382-4.208-1.052-5.686-2.452-0.575-0.545-1.067-1.262-0.99-2.060 0.125-1.291 1.364-2.12 2.406-2.681 2.896-1.558 6.424-1.906 9.751-1.899zM15.888 11.845c-3.612 0.024-7.521 0.255-10.31 2.564-0.098 0.081-0.191 0.165-0.282 0.254-0.059 0.057-0.115 0.117-0.17 0.178-0.489 0.55-0.658 1.433-0.196 2.094 0.465 0.665 1.171 1.144 1.898 1.535 2.719 1.462 5.932 1.721 9.065 1.733 3.171 0.012 6.442-0.277 9.244-1.726 1.116-0.578 2.372-1.425 2.328-2.518-0.041-1.002-1.018-1.621-1.75-2.063-0.198-0.12-0.401-0.23-0.608-0.334-2.781-1.393-6.040-1.723-9.218-1.716z"></path>
<path fill="#00d8ff" style="fill: var(--color4, #00d8ff)" d="M21.058 5.351c1.396 0.035 2.12 1.715 2.215 2.954 0.019 0.246 0.026 0.494 0.023 0.742-0.003 0.268-0.017 0.536-0.041 0.803-0.294 3.306-1.804 6.454-3.582 9.362-1.738 2.844-3.858 5.68-6.742 6.998-0.954 0.436-2.088 0.705-2.931 0.218-1.157-0.666-1.284-2.226-1.262-3.408 0.005-0.291 0.024-0.581 0.055-0.87 0.444-4.28 2.614-8.335 5.329-11.828 1.584-2.038 3.468-4.059 5.816-4.792 0.369-0.115 0.663-0.186 1.12-0.18zM20.991 5.938c-1.64 0.026-3.111 1.241-4.415 2.503-3.427 3.319-5.953 7.732-6.968 12.36-0.079 0.358-0.145 0.72-0.193 1.083-0.037 0.282-0.065 0.564-0.079 0.849-0.011 0.226-0.015 0.453-0.008 0.679 0.005 0.177 0.017 0.354 0.036 0.53 0.014 0.134 0.034 0.268 0.059 0.401 0.018 0.099 0.040 0.197 0.065 0.294 0.021 0.079 0.043 0.157 0.069 0.235 0.204 0.616 0.732 1.206 1.439 1.225 1.651 0.045 3.204-1.159 4.548-2.466 2.359-2.296 4.116-5.18 5.489-8.212 1.108-2.448 2.122-5.109 1.555-7.803-0.021-0.102-0.047-0.203-0.075-0.303-0.023-0.082-0.050-0.162-0.079-0.242-0.22-0.599-0.738-1.135-1.442-1.134z"></path>
<path fill="#00d8ff" style="fill: var(--color4, #00d8ff)" d="M11.055 5.373c1.782 0.035 3.383 1.244 4.803 2.598 2.593 2.472 4.506 5.615 5.957 8.925 1.124 2.564 2.158 5.441 1.239 8.146-0.29 0.852-1.022 1.633-1.998 1.652-1.791 0.036-3.45-1.266-4.89-2.668-3.613-3.517-6.294-8.16-7.213-13.084-0.066-0.352-0.118-0.707-0.155-1.063-0.030-0.291-0.048-0.584-0.053-0.876-0.004-0.236 0.001-0.472 0.018-0.707 0.011-0.157 0.027-0.313 0.049-0.468 0.021-0.146 0.046-0.292 0.079-0.436 0.021-0.096 0.046-0.19 0.073-0.284 0.27-0.921 0.97-1.742 2.092-1.736zM10.987 5.96c-1.043 0.023-1.521 1.253-1.617 2.117-0.020 0.177-0.031 0.355-0.037 0.534-0.007 0.228-0.004 0.457 0.008 0.684 0.164 3.3 1.639 6.489 3.419 9.411 1.676 2.75 3.7 5.489 6.484 6.897 0.804 0.407 1.781 0.726 2.476 0.342 0.871-0.482 0.978-1.631 1.024-2.486 0.012-0.233 0.014-0.467 0.006-0.701-0.009-0.293-0.032-0.585-0.067-0.877-0.321-2.718-1.525-5.291-2.908-7.722-1.721-3.024-3.829-6.038-6.814-7.612-0.618-0.326-1.287-0.593-1.975-0.587z"></path>
</symbol>

<symbol id="html5" viewBox="0 0 32 32">
<path fill="#e44d26" style="fill: var(--color8, #e44d26)" d="M6 28l-2-25h24l-2 25-10 3-10-3z"></path>
<path fill="#f16529" style="fill: var(--color9, #f16529)" d="M26 5h-10v24.5l8-2.5 2-22z"></path>
<path fill="#fff" style="fill: var(--color7, #fff)" d="M9.5 17.5l-1-9.5h15.5l-0.5 3h-12l0.5 3.5h11l-1 9.5-6 2-6-2-0.5-5h3l0.5 2.5 3 1 3-1 0.5-4h-10z"></path>
</symbol>


<symbol id="java-script" viewBox="0 0 32 32">
<path d="M29.956 0h-27.913c-1.127 0-2.043 0.914-2.043 2.043v27.914c0 1.126 0.916 2.043 2.043 2.043h27.913c1.127 0 2.043-0.916 2.043-2.043v-27.916c-0.001-1.127-0.916-2.042-2.043-2.042zM14.53 18.036c0 0.889-0.084 1.647-0.253 2.272s-0.425 1.127-0.765 1.52c-0.342 0.387-0.769 0.674-1.278 0.852-0.51 0.181-1.104 0.27-1.78 0.27-0.595 0-1.131-0.094-1.614-0.281s-0.891-0.454-1.228-0.802c-0.339-0.35-0.599-0.772-0.781-1.267-0.184-0.497-0.275-1.051-0.275-1.658v-0.398h1.917c0 1.784 0.661 2.678 1.983 2.678 0.339 0 0.639-0.039 0.905-0.12 0.264-0.083 0.488-0.234 0.672-0.459 0.184-0.224 0.322-0.534 0.418-0.935s0.144-0.924 0.144-1.57v-9.983h1.939v9.882h-0.003zM25.228 20.934c-0.198 0.404-0.48 0.757-0.841 1.058-0.364 0.302-0.808 0.535-1.329 0.707-0.52 0.167-1.107 0.252-1.752 0.252-2.863 0-4.375-1.13-4.528-3.393h1.884c0.008 1.278 0.884 1.918 2.624 1.918 0.386 0 0.732-0.041 1.029-0.129 0.297-0.084 0.546-0.202 0.743-0.351 0.199-0.149 0.349-0.328 0.452-0.531 0.101-0.202 0.155-0.422 0.155-0.663 0-0.253-0.040-0.454-0.116-0.606-0.077-0.154-0.23-0.29-0.454-0.409-0.223-0.118-0.534-0.234-0.929-0.346-0.397-0.116-0.916-0.259-1.555-0.426-0.622-0.155-1.162-0.31-1.613-0.465-0.454-0.152-0.824-0.339-1.113-0.559-0.29-0.221-0.506-0.492-0.646-0.815-0.14-0.324-0.209-0.732-0.209-1.224 0-0.433 0.091-0.835 0.275-1.206s0.445-0.692 0.788-0.964c0.34-0.272 0.754-0.484 1.238-0.639 0.488-0.155 1.028-0.231 1.621-0.231 2.769 0 4.177 0.983 4.22 2.953h-1.852c-0.066-0.983-0.808-1.477-2.225-1.477-0.315 0-0.606 0.032-0.876 0.094s-0.501 0.152-0.7 0.27-0.351 0.263-0.463 0.436c-0.109 0.173-0.165 0.373-0.165 0.6 0 0.206 0.026 0.375 0.077 0.506 0.051 0.133 0.174 0.257 0.369 0.371s0.484 0.225 0.864 0.336c0.382 0.111 0.903 0.246 1.566 0.408 0.639 0.154 1.194 0.314 1.665 0.479 0.469 0.166 0.859 0.367 1.173 0.602 0.313 0.234 0.542 0.52 0.694 0.859 0.149 0.337 0.225 0.761 0.225 1.267 0 0.474-0.101 0.914-0.297 1.318z"></path>
</symbol>


<symbol id="icon-Github" viewBox="0 0 32 32">
<path fill="#7b4ae2" style="fill: var(--color2, #7b4ae2)" opacity="0.5" d="M16 0.75c-8.628 0-15.625 6.995-15.625 15.625 0 6.904 4.477 12.761 10.685 14.827 0.781 0.145 1.068-0.339 1.068-0.752 0-0.373-0.014-1.603-0.021-2.909-4.347 0.945-5.264-1.844-5.264-1.844-0.711-1.806-1.735-2.286-1.735-2.286-1.418-0.97 0.107-0.95 0.107-0.95 1.569 0.11 2.395 1.61 2.395 1.61 1.394 2.389 3.655 1.698 4.547 1.299 0.14-1.010 0.545-1.699 0.992-2.089-3.471-0.395-7.119-1.735-7.119-7.722 0-1.706 0.61-3.1 1.61-4.194-0.162-0.394-0.697-1.983 0.151-4.135 0 0 1.312-0.42 4.298 1.602 1.246-0.346 2.583-0.52 3.911-0.526 1.328 0.006 2.666 0.18 3.914 0.526 2.982-2.022 4.293-1.602 4.293-1.602 0.851 2.152 0.315 3.742 0.153 4.135 1.002 1.094 1.608 2.488 1.608 4.194 0 6.001-3.655 7.323-7.135 7.71 0.56 0.485 1.060 1.436 1.060 2.894 0 2.091-0.018 3.773-0.018 4.288 0 0.416 0.281 0.903 1.073 0.75 6.205-2.068 10.676-7.923 10.676-14.825 0-8.63-6.996-15.625-15.625-15.625zM6.227 23.008c-0.034 0.078-0.157 0.101-0.268 0.048-0.113-0.051-0.177-0.157-0.14-0.235 0.034-0.080 0.156-0.102 0.269-0.049 0.114 0.051 0.178 0.158 0.139 0.236zM6.996 23.694c-0.074 0.069-0.22 0.037-0.319-0.072-0.102-0.109-0.121-0.255-0.046-0.325 0.077-0.069 0.218-0.037 0.321 0.072 0.102 0.11 0.122 0.255 0.044 0.325zM7.523 24.572c-0.096 0.066-0.252 0.004-0.349-0.135s-0.096-0.306 0.002-0.372c0.097-0.067 0.251-0.007 0.349 0.131 0.096 0.141 0.096 0.308-0.002 0.376zM8.415 25.588c-0.086 0.094-0.268 0.069-0.402-0.060-0.137-0.126-0.175-0.305-0.089-0.399s0.27-0.068 0.405 0.060c0.136 0.126 0.177 0.306 0.086 0.399zM9.567 25.931c-0.038 0.122-0.213 0.178-0.39 0.126-0.177-0.054-0.292-0.197-0.257-0.321s0.213-0.181 0.391-0.125c0.177 0.053 0.292 0.196 0.256 0.32zM10.879 26.076c0.004 0.129-0.146 0.236-0.332 0.238-0.187 0.004-0.338-0.1-0.34-0.227 0-0.13 0.147-0.236 0.334-0.239s0.338 0.1 0.338 0.228zM12.167 26.027c0.022 0.126-0.107 0.255-0.291 0.289-0.181 0.033-0.349-0.044-0.372-0.169-0.023-0.129 0.109-0.258 0.29-0.291 0.185-0.032 0.35 0.043 0.374 0.171z"></path>
</symbol>

<symbol id="Db" viewBox="0 0 127 32">
<path d="M9.476 3.297c-1.242-1.473-2.311-2.969-2.529-3.28-0.023-0.023-0.058-0.023-0.080 0-0.218 0.311-1.288 1.807-2.529 3.28-10.657 13.592 1.678 22.764 1.678 22.764l0.103 0.069c0.092 1.415 0.322 3.453 0.322 3.453h0.92c0 0 0.23-2.026 0.322-3.453l0.103-0.081c0.011 0.012 12.347-9.161 1.69-22.752zM6.901 25.854c0 0-0.552-0.472-0.701-0.713v-0.023l0.667-14.8c0-0.046 0.069-0.046 0.069 0l0.667 14.8v0.023c-0.149 0.242-0.701 0.713-0.701 0.713z"></path>
<path d="M29.986 22.834l-5.14-12.555-0.012-0.035h-3.999v0.844h0.645c0.196 0 0.38 0.081 0.519 0.22s0.207 0.324 0.207 0.52l-0.115 12.636c0 0.393-0.323 0.717-0.715 0.728l-0.657 0.012v0.832h3.896v-0.832l-0.403-0.012c-0.392-0.012-0.715-0.335-0.715-0.728v-11.907l5.601 13.479c0.081 0.197 0.265 0.324 0.473 0.324s0.392-0.127 0.473-0.324l5.475-13.179 0.081 11.607c0 0.405-0.323 0.728-0.726 0.74h-0.415v0.832h4.564v-0.832h-0.622c-0.392 0-0.715-0.335-0.726-0.728l-0.035-12.636c0-0.405 0.323-0.728 0.715-0.74l0.668-0.012v-0.844h-3.896l-5.14 12.589z"></path>
<path d="M65.827 24.984c-0.127-0.127-0.197-0.301-0.197-0.509v-6.207c0-1.181-0.347-2.108-1.040-2.768-0.682-0.66-1.629-0.996-2.808-0.996-1.653 0-2.958 0.672-3.871 1.992-0.011 0.023-0.046 0.035-0.081 0.035s-0.058-0.023-0.058-0.058l-0.428-1.656h-0.716l-1.837 1.054v0.579h0.474c0.219 0 0.404 0.058 0.532 0.174s0.196 0.29 0.196 0.533v7.307c0 0.208-0.069 0.382-0.196 0.51s-0.3 0.197-0.508 0.197h-0.462v0.845h4.229v-0.845h-0.462c-0.208 0-0.381-0.070-0.508-0.197s-0.197-0.301-0.197-0.51v-4.841c0-0.614 0.139-1.227 0.393-1.83 0.266-0.59 0.659-1.088 1.179-1.471s1.144-0.567 1.86-0.567c0.809 0 1.421 0.255 1.803 0.764s0.578 1.17 0.578 1.957v5.975c0 0.208-0.069 0.382-0.197 0.509s-0.3 0.197-0.508 0.197h-0.462v0.845h4.229v-0.845h-0.462c-0.173 0.023-0.335-0.046-0.474-0.174z"></path>
<path d="M104.466 11.19c-1.169-0.623-2.476-0.945-3.885-0.945h-5.501v0.841h0.539c0.206 0 0.39 0.081 0.573 0.265 0.172 0.173 0.264 0.369 0.264 0.576v12.404c0 0.207-0.092 0.403-0.264 0.576s-0.367 0.265-0.573 0.265h-0.539v0.842h5.501c1.41 0 2.716-0.323 3.885-0.945s2.12-1.545 2.808-2.72c0.688-1.176 1.043-2.594 1.043-4.208s-0.355-3.020-1.043-4.208c-0.699-1.199-1.639-2.11-2.808-2.744zM106.105 18.118c0 1.476-0.264 2.72-0.779 3.723s-1.203 1.752-2.052 2.236c-0.848 0.484-1.788 0.726-2.796 0.726h-1.112c-0.206 0-0.39-0.081-0.573-0.265-0.172-0.173-0.264-0.369-0.264-0.576v-11.7c0-0.208 0.080-0.392 0.264-0.576 0.172-0.173 0.367-0.265 0.573-0.265h1.112c1.009 0 1.948 0.242 2.796 0.726s1.536 1.233 2.052 2.236c0.516 1.014 0.779 2.271 0.779 3.735z"></path>
<path d="M121.32 18.96c-0.509-0.588-1.491-1.084-2.645-1.349 1.594-0.795 2.414-1.914 2.414-3.354 0-0.784-0.207-1.487-0.624-2.087-0.416-0.599-1.005-1.084-1.755-1.418-0.752-0.334-1.63-0.507-2.623-0.507h-6.227v0.841h0.497c0.208 0 0.393 0.081 0.578 0.265 0.173 0.173 0.266 0.369 0.266 0.576v12.404c0 0.207-0.092 0.403-0.266 0.576s-0.37 0.265-0.578 0.265h-0.543v0.842h6.759c1.028 0 1.987-0.173 2.854-0.519s1.56-0.853 2.057-1.522c0.508-0.669 0.762-1.487 0.762-2.432-0.011-1.014-0.312-1.879-0.924-2.582zM113.568 24.55c-0.173-0.173-0.266-0.369-0.266-0.576v-5.568h3.212c1.132 0 1.998 0.288 2.599 0.865s0.901 1.326 0.901 2.248c0 0.553-0.139 1.095-0.393 1.591-0.266 0.507-0.66 0.911-1.19 1.222-0.52 0.311-1.167 0.473-1.918 0.473h-2.369c-0.208 0-0.393-0.081-0.578-0.254zM113.314 17.219v-4.945c0-0.208 0.081-0.392 0.266-0.576 0.173-0.173 0.37-0.265 0.578-0.265h1.525c1.097 0 1.906 0.277 2.415 0.807 0.508 0.542 0.762 1.233 0.762 2.087 0 0.876-0.243 1.579-0.716 2.109-0.474 0.519-1.19 0.784-2.138 0.784h-2.692z"></path>
<path d="M49.727 15.239c-0.883-0.483-1.869-0.735-2.935-0.735s-2.064 0.241-2.935 0.735c-0.883 0.482-1.582 1.183-2.098 2.068s-0.78 1.919-0.78 3.067c0 1.149 0.264 2.183 0.78 3.067s1.215 1.585 2.098 2.068c0.883 0.482 1.869 0.735 2.935 0.735s2.064-0.241 2.935-0.735c0.883-0.483 1.582-1.183 2.098-2.068s0.78-1.919 0.78-3.067c0-1.149-0.264-2.183-0.78-3.067s-1.215-1.585-2.098-2.068zM50.575 20.374c0 1.413-0.344 2.562-1.032 3.389-0.676 0.827-1.605 1.252-2.752 1.252s-2.075-0.425-2.752-1.252c-0.688-0.827-1.032-1.976-1.032-3.389s0.344-2.562 1.032-3.389c0.676-0.827 1.605-1.252 2.752-1.252s2.075 0.425 2.752 1.252c0.688 0.827 1.032 1.976 1.032 3.389z"></path>
<path d="M90.36 15.239c-0.883-0.483-1.869-0.735-2.935-0.735s-2.064 0.241-2.935 0.735c-0.883 0.482-1.582 1.183-2.098 2.068s-0.78 1.919-0.78 3.067c0 1.149 0.264 2.183 0.78 3.067s1.215 1.585 2.098 2.068c0.883 0.482 1.869 0.735 2.935 0.735s2.064-0.241 2.935-0.735c0.883-0.483 1.582-1.183 2.098-2.068s0.78-1.919 0.78-3.067c0-1.149-0.264-2.183-0.78-3.067s-1.227-1.585-2.098-2.068zM91.208 20.374c0 1.413-0.344 2.562-1.032 3.389-0.677 0.827-1.605 1.252-2.752 1.252s-2.075-0.425-2.752-1.252c-0.688-0.827-1.032-1.976-1.032-3.389 0-1.425 0.344-2.562 1.032-3.389 0.676-0.827 1.605-1.252 2.752-1.252s2.075 0.425 2.752 1.252 1.032 1.976 1.032 3.389z"></path>
<path d="M73.973 14.504c-0.924 0-1.767 0.196-2.529 0.589s-1.363 0.923-1.79 1.604c-0.427 0.669-0.647 1.42-0.647 2.216 0 0.715 0.162 1.373 0.496 1.962 0.323 0.566 0.762 1.039 1.316 1.431l-1.651 2.239c-0.208 0.277-0.231 0.646-0.081 0.946 0.162 0.312 0.462 0.496 0.808 0.496h0.473c-0.462 0.312-0.831 0.681-1.085 1.119-0.3 0.496-0.45 1.016-0.45 1.546 0 0.993 0.439 1.812 1.305 2.424 0.855 0.612 2.055 0.923 3.568 0.923 1.051 0 2.055-0.173 2.968-0.508 0.924-0.335 1.674-0.831 2.228-1.477 0.566-0.646 0.855-1.431 0.855-2.331 0-0.946-0.346-1.616-1.155-2.262-0.693-0.543-1.778-0.831-3.129-0.831h-4.619c-0.011 0-0.023-0.012-0.023-0.012s-0.011-0.023 0-0.035l1.201-1.616c0.323 0.15 0.624 0.242 0.889 0.3 0.277 0.058 0.589 0.081 0.935 0.081 0.97 0 1.848-0.196 2.61-0.589s1.374-0.923 1.813-1.604c0.439-0.669 0.658-1.419 0.658-2.216 0-0.854-0.416-2.412-1.547-3.209 0-0.011 0.012-0.011 0.012-0.011l2.483 0.277v-1.143h-3.972c-0.624-0.196-1.27-0.312-1.94-0.312zM75.359 21.728c-0.439 0.231-0.912 0.358-1.386 0.358-0.774 0-1.455-0.277-2.032-0.819s-0.866-1.339-0.866-2.354 0.289-1.812 0.866-2.354c0.577-0.542 1.259-0.819 2.032-0.819 0.485 0 0.947 0.115 1.386 0.358 0.439 0.231 0.797 0.589 1.085 1.062 0.277 0.473 0.427 1.062 0.427 1.754 0 0.704-0.139 1.293-0.427 1.754-0.277 0.473-0.647 0.831-1.085 1.062zM72.229 25.975h3.129c0.866 0 1.42 0.173 1.79 0.543s0.554 0.866 0.554 1.443c0 0.842-0.335 1.535-1.005 2.054s-1.57 0.785-2.679 0.785c-0.97 0-1.778-0.219-2.367-0.635s-0.889-1.050-0.889-1.858c0-0.508 0.139-0.981 0.416-1.396s0.612-0.716 1.051-0.935z"></path>
<path d="M124.587 25.822c-0.228-0.125-0.399-0.306-0.536-0.521-0.125-0.227-0.195-0.464-0.195-0.725s0.069-0.51 0.195-0.725c0.125-0.227 0.308-0.397 0.536-0.521 0.229-0.125 0.48-0.193 0.765-0.193s0.536 0.068 0.765 0.193c0.228 0.125 0.399 0.306 0.536 0.521 0.125 0.227 0.195 0.464 0.195 0.725s-0.069 0.51-0.195 0.725c-0.125 0.227-0.308 0.397-0.536 0.521-0.229 0.125-0.48 0.193-0.765 0.193-0.274 0-0.536-0.057-0.765-0.193zM125.993 25.663c0.193-0.102 0.332-0.261 0.445-0.442 0.102-0.193 0.16-0.408 0.16-0.646s-0.058-0.453-0.16-0.646c-0.104-0.193-0.252-0.34-0.445-0.442-0.195-0.102-0.401-0.159-0.64-0.159s-0.445 0.057-0.64 0.159c-0.193 0.102-0.332 0.261-0.445 0.442-0.102 0.193-0.16 0.408-0.16 0.646s0.058 0.453 0.16 0.646c0.104 0.193 0.252 0.34 0.445 0.442 0.195 0.102 0.401 0.159 0.64 0.159s0.457-0.057 0.64-0.159zM124.736 25.267v-0.102l0.023-0.011h0.069c0.022 0 0.045-0.011 0.056-0.023 0.023-0.023 0.023-0.034 0.023-0.057v-1.054c0-0.023-0.011-0.045-0.023-0.057-0.023-0.023-0.035-0.023-0.056-0.023h-0.069l-0.023-0.011v-0.102l0.023-0.011h0.594c0.171 0 0.297 0.034 0.399 0.113 0.104 0.079 0.148 0.181 0.148 0.317 0 0.102-0.033 0.204-0.114 0.272-0.079 0.079-0.171 0.125-0.285 0.136l0.137 0.045 0.262 0.419c0.023 0.034 0.046 0.045 0.081 0.045h0.068l0.011 0.011v0.102l-0.011 0.011h-0.353l-0.023-0.011-0.366-0.612h-0.091v0.408c0 0.023 0.011 0.045 0.023 0.057 0.023 0.023 0.035 0.023 0.056 0.023h0.069l0.023 0.011v0.102l-0.023 0.011h-0.605l-0.023-0.011zM125.318 24.519c0.092 0 0.171-0.023 0.218-0.079 0.045-0.045 0.079-0.125 0.079-0.215s-0.023-0.159-0.068-0.215c-0.046-0.057-0.115-0.079-0.195-0.079h-0.046c-0.023 0-0.045 0.011-0.056 0.023-0.023 0.023-0.023 0.034-0.023 0.057v0.51h0.091z"></path>
</symbol>
<symbol id="redux" viewBox="0 0 32 32">
<path fill="#764abc" style="fill: var(--color1, #764abc)" d="M20.992 20.928c0.928-0.096 1.632-0.896 1.6-1.856s-0.832-1.728-1.792-1.728h-0.064c-0.992 0.032-1.76 0.864-1.728 1.856 0.032 0.48 0.224 0.896 0.512 1.184-1.088 2.144-2.752 3.712-5.248 5.024-1.696 0.896-3.456 1.216-5.216 0.992-1.44-0.192-2.56-0.832-3.264-1.888-1.024-1.568-1.12-3.264-0.256-4.96 0.608-1.216 1.568-2.112 2.176-2.56-0.128-0.416-0.32-1.12-0.416-1.632-4.64 3.36-4.16 7.904-2.752 10.048 1.056 1.6 3.2 2.592 5.568 2.592 0.64 0 1.28-0.064 1.92-0.224 4.096-0.8 7.2-3.232 8.96-6.848z"></path>
<path fill="#764abc" style="fill: var(--color1, #764abc)" d="M26.624 16.96c-2.432-2.848-6.016-4.416-10.112-4.416h-0.512c-0.288-0.576-0.896-0.96-1.568-0.96h-0.064c-0.992 0.032-1.76 0.864-1.728 1.856 0.032 0.96 0.832 1.728 1.792 1.728h0.064c0.704-0.032 1.312-0.48 1.568-1.088h0.576c2.432 0 4.736 0.704 6.816 2.080 1.6 1.056 2.752 2.432 3.392 4.096 0.544 1.344 0.512 2.656-0.064 3.776-0.896 1.696-2.4 2.624-4.384 2.624-1.28 0-2.496-0.384-3.136-0.672-0.352 0.32-0.992 0.832-1.44 1.152 1.376 0.64 2.784 0.992 4.128 0.992 3.072 0 5.344-1.696 6.208-3.392 0.928-1.856 0.864-5.056-1.536-7.776z"></path>
<path fill="#764abc" style="fill: var(--color1, #764abc)" d="M10.368 21.472c0.032 0.96 0.832 1.728 1.792 1.728h0.064c0.992-0.032 1.76-0.864 1.728-1.856-0.032-0.96-0.832-1.728-1.792-1.728h-0.064c-0.064 0-0.16 0-0.224 0.032-1.312-2.176-1.856-4.544-1.664-7.104 0.128-1.92 0.768-3.584 1.888-4.96 0.928-1.184 2.72-1.76 3.936-1.792 3.392-0.064 4.832 4.16 4.928 5.856 0.416 0.096 1.12 0.32 1.6 0.48-0.384-5.184-3.584-7.872-6.656-7.872-2.88 0-5.536 2.080-6.592 5.152-1.472 4.096-0.512 8.032 1.28 11.136-0.16 0.224-0.256 0.576-0.224 0.928z"></path>
</symbol>


<symbol id="icon-Figma" viewBox="0 0 32 32">
<path fill="#7b4ae2" style="fill: var(--color2, #7b4ae2)" opacity="0.5" d="M10.708 0h10.667c2.944 0 5.333 2.389 5.333 5.333s-2.389 5.333-5.333 5.333c2.944 0 5.333 2.389 5.333 5.333s-2.389 5.333-5.333 5.333c-2.944 0-5.333-2.389-5.333-5.333v10.667c0 2.944-2.389 5.333-5.333 5.333s-5.333-2.389-5.333-5.333c0-2.944 2.389-5.333 5.333-5.333-2.944 0-5.333-2.389-5.333-5.333s2.389-5.333 5.333-5.333c-2.944 0-5.333-2.389-5.333-5.333s2.389-5.333 5.333-5.333zM21.375 10.667h-5.333v5.333c0-2.944 2.389-5.333 5.333-5.333z"></path>
</symbol>
</defs>
</svg>
